<?xml version="1.0" standalone="no"?>
<!DOCTYPE svg PUBLIC "-//W3C//DTD SVG 20010904//EN"
 "http://www.w3.org/TR/2001/REC-SVG-20010904/DTD/svg10.dtd">
<svg version="1.0" xmlns="http://www.w3.org/2000/svg"
 width="700.000000pt" height="700.000000pt" viewBox="0 0 700.000000 700.000000"
 preserveAspectRatio="xMidYMid meet">
<metadata>
Created by potrace 1.14, written by Peter Selinger 2001-2017
</metadata>
<g transform="translate(0.000000,700.000000) scale(0.100000,-0.100000)"
fill="#000000" stroke="none">
<path d="M3427 6994 c-1 -1 -60 -4 -132 -8 -71 -3 -141 -8 -155 -10 -14 -3
-50 -7 -80 -10 -65 -7 -81 -10 -225 -37 -202 -37 -451 -111 -642 -190 -54 -22
-115 -47 -135 -56 -20 -8 -92 -44 -159 -79 -67 -35 -126 -64 -130 -64 -5 0 -9
-4 -9 -9 0 -5 -8 -12 -19 -16 -51 -16 -341 -217 -486 -337 -219 -181 -478
-468 -638 -706 -143 -214 -221 -353 -307 -547 -84 -189 -195 -520 -216 -639
-2 -17 -7 -38 -9 -46 -2 -8 -7 -28 -10 -45 -2 -16 -7 -41 -10 -55 -10 -47 -15
-78 -20 -121 -3 -24 -10 -78 -15 -119 -22 -175 -29 -457 -16 -631 8 -111 17
-203 21 -219 2 -8 7 -40 10 -70 3 -30 8 -62 10 -70 2 -8 7 -28 10 -45 2 -16 7
-41 10 -55 3 -14 7 -37 10 -52 26 -139 119 -434 192 -608 48 -114 151 -321
189 -382 13 -21 24 -40 24 -43 0 -3 8 -18 19 -33 10 -15 51 -76 91 -137 153
-231 397 -511 581 -666 28 -24 59 -51 68 -60 38 -38 205 -163 316 -236 323
-214 679 -376 1035 -469 115 -30 265 -62 328 -69 26 -4 54 -8 62 -10 32 -9 86
-15 260 -31 61 -6 445 -6 495 0 22 2 72 7 110 11 39 3 77 8 85 10 8 2 40 6 70
9 30 3 66 8 80 11 36 8 171 35 200 41 91 18 405 114 485 150 17 7 59 25 95 40
36 14 117 52 180 83 973 482 1672 1398 1879 2461 11 58 23 125 26 150 3 25 8
56 10 70 5 28 12 109 20 215 6 79 7 424 1 470 -2 17 -7 71 -11 120 -4 50 -8
92 -10 95 -2 3 -6 32 -9 64 -4 33 -11 78 -16 100 -5 23 -11 52 -14 66 -2 14
-10 50 -16 80 -32 162 -122 441 -201 624 -104 239 -270 526 -406 701 -13 17
-27 35 -31 40 -31 42 -82 106 -107 134 -287 325 -530 531 -876 742 -72 43
-137 79 -144 79 -8 0 -16 4 -19 9 -5 8 -191 101 -201 101 -3 0 -33 13 -67 29
-70 31 -219 86 -345 125 -196 61 -374 97 -643 131 -85 10 -435 26 -443 19z
m358 -518 c33 -4 71 -9 85 -11 14 -2 45 -7 70 -10 133 -17 457 -96 558 -136
15 -7 36 -15 47 -19 323 -123 640 -309 890 -523 116 -100 325 -317 411 -428
271 -348 456 -726 554 -1134 33 -135 34 -142 55 -276 23 -153 30 -252 29 -434
0 -153 -11 -372 -19 -385 -2 -3 -6 -30 -10 -60 -18 -145 -70 -356 -130 -530
-221 -643 -656 -1192 -1232 -1558 -341 -217 -767 -374 -1158 -427 -22 -3 -50
-8 -61 -10 -50 -11 -221 -20 -379 -19 -155 0 -351 11 -365 19 -4 2 -33 6 -66
10 -32 3 -66 7 -74 10 -8 2 -31 7 -50 10 -83 14 -284 66 -385 100 -440 148
-831 391 -1166 725 -436 435 -721 979 -833 1595 -3 17 -8 50 -11 75 -3 25 -8
56 -10 70 -20 119 -26 468 -11 635 25 284 103 605 213 875 53 128 156 329 214
418 16 24 29 45 29 48 0 2 21 34 47 72 208 300 480 575 775 780 362 252 854
447 1257 497 30 4 62 8 72 10 10 2 60 7 111 11 51 3 94 7 96 9 5 5 390 -3 447
-9z"/>
<path d="M3710 4905 c-4 -5 -24 -62 -43 -125 -19 -63 -104 -335 -187 -605 -83
-269 -155 -503 -160 -520 -4 -16 -31 -104 -60 -195 -29 -91 -58 -185 -65 -210
-7 -25 -31 -103 -54 -175 -22 -71 -60 -195 -84 -275 -25 -80 -64 -206 -87
-280 -23 -74 -59 -193 -81 -265 -22 -71 -42 -137 -44 -146 -5 -14 19 -16 220
-16 l225 0 36 116 c20 64 47 152 61 196 14 44 33 107 43 140 29 97 148 481
187 605 20 63 38 120 39 125 1 6 32 107 69 225 37 118 75 242 85 275 19 66
156 510 309 999 22 72 39 132 37 134 -9 9 -438 6 -446 -3z"/>
<path d="M2791 4385 c-24 -14 -87 -49 -140 -77 -53 -28 -100 -54 -106 -58 -5
-4 -55 -31 -110 -60 -55 -30 -114 -62 -132 -71 -18 -10 -61 -34 -95 -53 -35
-18 -184 -100 -333 -181 -148 -81 -299 -163 -335 -182 -123 -67 -175 -96 -274
-150 l-98 -55 108 -60 c60 -33 152 -82 204 -110 52 -28 100 -54 105 -58 6 -4
60 -33 120 -65 182 -97 205 -109 330 -177 66 -36 161 -87 210 -113 101 -54
324 -173 400 -215 157 -85 185 -100 189 -100 3 0 5 114 5 253 l1 253 -78 37
c-69 32 -207 98 -604 290 -71 33 -128 63 -128 66 1 3 31 20 68 38 37 18 219
106 405 197 l337 165 0 256 c0 140 -1 255 -2 255 -2 0 -23 -12 -47 -25z"/>
<path d="M4162 4154 l-1 -255 297 -145 c163 -80 345 -168 404 -197 59 -29 108
-55 108 -60 0 -4 -10 -11 -22 -16 -22 -9 -115 -53 -473 -225 -88 -43 -194 -93
-236 -113 l-77 -35 0 -254 c-1 -287 -11 -264 88 -211 64 35 88 48 440 237 146
78 297 159 335 180 325 175 591 319 645 349 36 20 86 47 112 61 26 14 44 28
40 32 -6 6 -98 57 -247 138 -27 15 -70 38 -95 52 -58 32 -104 58 -390 213
-129 70 -255 139 -280 152 -25 14 -74 41 -110 61 -36 19 -85 46 -110 60 -65
35 -294 159 -367 198 l-61 33 0 -255z"/>
</g>
</svg>
